<svg width="300" height="160" viewBox="0 0 300 160" fill="none" xmlns="http://www.w3.org/2000/svg">
<path d="M206.624 98.3507C208.278 102.449 210.848 106.392 213.818 109.638C216.52 112.591 219.615 115.015 223.356 116.54C239.276 123.029 248.977 107.797 249.316 106.085C248.493 106.804 247.727 107.57 246.885 108.252C243.084 111.335 238.761 113.209 233.901 113.789C228.483 114.436 223.552 113.015 219.015 110.101C215.415 107.79 212.394 104.882 210.264 101.143C208.703 98.4027 207.907 95.3969 207.491 92.286C207.11 89.4278 207.138 86.5743 207.562 83.7161C210.458 64.1902 235.075 54.337 238.591 52.4421C243.514 49.7881 250.204 45.728 251.979 37.0353C252.079 36.5454 252.363 34.3813 252.393 34C254.218 36.7059 255.295 39.648 255.046 42.9525C253.729 60.4631 208.818 65.1347 210.603 87.8494C210.802 90.3806 211.21 92.8869 212.269 95.2186C214.28 99.647 217.736 102.512 222.299 103.989C227.921 105.81 233.332 105.353 238.21 101.805C241.896 99.1252 244.433 95.5787 245.29 91.0228C248.38 74.6042 226.809 67.2361 214.183 84.4776C214.399 83.0136 214.902 81.6453 215.626 80.375C218.571 75.204 222.924 71.7531 228.616 70.0731C238.638 67.1145 251.37 72.1923 254.856 85.6983C256.688 92.8008 258.453 108.797 248.067 119.184C245.071 122.18 241.621 124.146 237.791 124.889C232.98 125.822 228.21 125.803 223.519 124.283C217.668 122.385 213.371 118.632 210.547 113.183C208.471 109.178 207.333 104.892 206.781 100.436C206.688 99.6907 206.635 99.1748 206.626 98.3484L206.624 98.3507Z" fill="#3AAF4A"/>
<path d="M228.494 46.957L224.569 43.5097L228.527 39.0022C228.661 38.8511 228.645 38.6173 228.494 38.4851L223.492 34.0933C223.341 33.9599 223.107 33.9752 222.975 34.1263L218.583 39.1285C218.45 39.2796 218.465 39.5134 218.616 39.6456L222.542 43.0929L218.583 47.6005C218.45 47.7528 218.465 47.9842 218.616 48.1176L223.618 52.5094C223.771 52.6428 224.002 52.6274 224.135 52.4763L228.527 47.4741C228.661 47.323 228.645 47.0893 228.494 46.957Z" fill="#0755A3"/>
<path d="M46.4196 78.028H48.5612C48.7312 78.028 48.8162 77.9418 48.8162 77.7706V75.5582C48.8162 75.387 48.7312 75.3008 48.5612 75.3008H46.4196C46.2496 75.3008 46.1646 75.387 46.1646 75.5582V77.7706C46.1646 77.9418 46.2496 78.028 46.4196 78.028Z" fill="#0755A3"/>
<path d="M49.7335 78.028H51.8751C52.0451 78.028 52.1301 77.9418 52.1301 77.7706V75.5582C52.1301 75.387 52.0451 75.3008 51.8751 75.3008H49.7335C49.5635 75.3008 49.4785 75.387 49.4785 75.5582V77.7706C49.4785 77.9418 49.5635 78.028 49.7335 78.028Z" fill="#0755A3"/>
<path d="M95.4161 91.397C95.8706 90.8788 96.0984 90.0677 96.0984 88.9627V75.0966C96.0984 74.9266 96.0146 74.8416 95.8458 74.8416H93.4964C93.3276 74.8416 93.2438 74.9266 93.2438 75.0954V88.2767C93.2438 88.7856 93.1458 89.1374 92.951 89.3334C92.755 89.5282 92.4445 89.6262 92.0207 89.6262H90.3383C89.6925 89.6262 89.1825 89.4904 88.8094 89.22C88.4352 88.9485 88.2404 88.5589 88.2227 88.0512C88.2227 87.9497 88.2262 87.8269 88.2357 87.6829C88.2439 87.5389 88.2487 87.3818 88.2487 87.213C88.2487 86.2981 88.133 85.4645 87.9039 84.7101C87.6737 83.9557 87.3077 83.317 86.806 82.7917C86.303 82.2663 85.6561 81.8602 84.8639 81.5721C84.0717 81.2841 83.1225 81.14 82.0163 81.14C80.9774 81.14 79.9727 81.2805 79.0022 81.5603C78.0318 81.8413 77.1463 82.1766 76.3459 82.5674V81.7516C76.3459 81.5816 76.2609 81.4966 76.0933 81.4966H73.7439C73.575 81.4966 73.4912 81.5816 73.4912 81.7516V86.9863C73.4912 87.3417 73.4829 87.6805 73.4652 88.0028C73.4475 88.324 73.4015 88.6085 73.3247 88.8541C73.248 89.0996 73.1252 89.2909 72.9552 89.4255C72.7852 89.5612 72.5385 89.6285 72.2162 89.6285H70.6106C69.9813 89.6285 69.4843 89.501 69.1195 89.2472C68.7547 88.9934 68.5457 88.6368 68.4949 88.1799C68.4949 88.0784 68.4985 87.9769 68.5079 87.8753C68.5174 87.7738 68.5209 87.664 68.5209 87.5448C68.5209 86.6806 68.4229 85.8636 68.2281 85.0927C68.0321 84.3217 67.7051 83.6441 67.247 83.0597C66.7878 82.4753 66.1762 82.0089 65.4112 81.6618C64.6462 81.3148 63.6946 81.1412 62.5565 81.1412C61.5023 81.1412 60.6109 81.3372 59.8801 81.728C59.1493 82.1187 58.5201 82.6111 57.9935 83.2061C57.892 83.3076 57.9085 83.4268 58.0443 83.5626L59.3701 84.9392C59.4882 85.0407 59.6074 85.0325 59.7266 84.9132C60.0832 84.5402 60.4917 84.2415 60.9497 84.0207C61.409 83.7999 61.9178 83.6889 62.4786 83.6889C63.0559 83.6889 63.5364 83.7869 63.9189 83.9805C64.3015 84.1753 64.6108 84.4422 64.8492 84.7798C65.0865 85.1186 65.2566 85.5153 65.3593 85.9722C65.4608 86.4291 65.5127 86.9285 65.5127 87.4692C65.5127 87.8753 65.4868 88.2189 65.436 88.4975C65.3852 88.7773 65.2825 89.0016 65.1302 89.1693C64.9768 89.3381 64.7642 89.4573 64.4927 89.5246C64.2212 89.5919 63.8635 89.6262 63.4219 89.6262H56.6417C56.5804 89.6262 56.5249 89.6321 56.4682 89.6368C56.4245 89.6332 56.3832 89.6262 56.336 89.6262H55.3679C54.9429 89.6262 54.6324 89.5293 54.4376 89.3334C54.2416 89.1386 54.1448 88.7867 54.1448 88.2779V80.0409C54.1448 79.8721 54.0598 79.7871 53.8898 79.7871H51.5451C51.3751 79.7871 51.2901 79.8721 51.2901 80.0421V81.1377H48.7412C48.0954 81.1377 47.4756 81.2227 46.8806 81.3927C46.2856 81.5627 45.7543 81.8472 45.288 82.2463C44.8204 82.6453 44.4462 83.1766 44.1664 83.8389C43.8866 84.5012 43.7461 85.3264 43.7461 86.311C43.7461 87.1611 43.8736 87.8871 44.1286 88.4904C44.3836 89.0937 44.7272 89.5907 45.1605 89.9815C45.5937 90.3723 46.1037 90.6615 46.6893 90.8481C47.2761 91.0358 47.9006 91.1291 48.5629 91.1291C49.106 91.1291 49.6243 91.0511 50.1178 90.8953C50.6101 90.7394 51.0351 90.5045 51.3916 90.1917C51.5451 90.9307 51.8544 91.4455 52.3219 91.7371C52.7895 92.0287 53.4388 92.1751 54.2723 92.1751H56.3372C56.3985 92.1751 56.4529 92.1692 56.5083 92.1644C56.5532 92.168 56.5957 92.1751 56.6429 92.1751H64.5187C65.3345 92.1751 66.0263 92.0676 66.5965 91.8528C67.1656 91.6391 67.6118 91.24 67.9342 90.6556C68.2234 91.2908 68.6354 91.7028 69.1702 91.8917C69.705 92.0806 70.3296 92.1751 71.0438 92.1751H73.1595C73.601 92.1751 73.9882 92.1491 74.3188 92.0983C74.6506 92.0476 74.9516 91.9295 75.2232 91.7418C75.3932 91.8433 75.6009 91.9201 75.8477 91.9708C76.0944 92.0216 76.353 92.0641 76.6257 92.0983C76.8972 92.1326 77.177 92.1538 77.4663 92.1621C77.7555 92.1715 78.0353 92.1751 78.3069 92.1751H83.3279C84.4495 92.1751 85.3538 92.0771 86.0421 91.8787C86.7304 91.6816 87.2534 91.2388 87.61 90.5529C87.8815 91.2046 88.2935 91.6391 88.8461 91.8528C89.3974 92.0676 90.0396 92.1751 90.7704 92.1751H93.1411C94.2024 92.1751 94.9604 91.9165 95.4161 91.397ZM51.2877 85.8423C51.2877 86.7384 51.0918 87.4184 50.701 87.8836C50.3102 88.3487 49.7069 88.5813 48.8911 88.5813C48.1769 88.5813 47.6161 88.396 47.2088 88.0241C46.8015 87.6522 46.5972 87.0773 46.5972 86.2992C46.5972 85.3016 46.818 84.6169 47.2595 84.245C47.7011 83.8731 48.2879 83.6866 49.0186 83.6866H51.2877V85.8423ZM85.1118 88.5471C85.0268 88.8942 84.8604 89.148 84.6136 89.3086C84.3669 89.4691 84.0174 89.5624 83.5652 89.5872C83.1131 89.612 82.5216 89.625 81.7884 89.625H76.242C76.2762 89.4562 76.301 89.2791 76.3187 89.0925C76.3353 88.9072 76.3447 88.7124 76.3447 88.5093V85.0573C77.0602 84.7196 77.8783 84.4056 78.7992 84.1187C79.7189 83.8306 80.6562 83.6866 81.6114 83.6866C82.3268 83.6866 82.9147 83.7633 83.3752 83.9156C83.8356 84.0679 84.2063 84.2887 84.4873 84.5756C84.7683 84.8624 84.9642 85.2178 85.0752 85.6416C85.1862 86.0643 85.2417 86.5472 85.2417 87.0879C85.2417 87.7136 85.1992 88.2012 85.1142 88.5483L85.1118 88.5471Z" fill="#0755A3"/>
<path d="M102.039 74.8428H99.6897C99.5208 74.8428 99.437 74.9278 99.437 75.0978V91.9213C99.437 92.0913 99.5208 92.1763 99.6897 92.1763H102.039C102.207 92.1763 102.292 92.0913 102.292 91.9213V75.0978C102.292 74.9278 102.208 74.8428 102.039 74.8428Z" fill="#0755A3"/>
<path d="M126.787 79.048H129.234C129.404 79.048 129.489 78.9618 129.489 78.7906V76.5782C129.489 76.407 129.404 76.3208 129.234 76.3208H126.787C126.617 76.3208 126.532 76.407 126.532 76.5782V78.7906C126.532 78.9618 126.617 79.048 126.787 79.048Z" fill="#0755A3"/>
<path d="M131.643 82.4128C131.176 81.9712 130.62 81.6478 129.974 81.4447C129.328 81.2405 128.632 81.1389 127.884 81.1389C127.17 81.1389 126.5 81.2404 125.87 81.4435C125.241 81.6466 124.685 81.9677 124.201 82.4092C123.717 82.8496 123.334 83.4352 123.053 84.1624C122.774 84.8909 122.633 85.7728 122.633 86.8058C122.633 87.958 122.83 88.8978 123.225 89.6262H115.293C114.868 89.6262 114.558 89.5282 114.362 89.3334C114.166 89.1386 114.069 88.7856 114.069 88.2756V83.4576C114.069 83.2888 113.984 83.2026 113.814 83.2026H111.469C111.299 83.2026 111.214 83.2876 111.214 83.4576V88.9379C111.214 90.0489 111.443 90.867 111.903 91.39C112.362 91.913 113.126 92.1751 114.197 92.1751H127.884C128.649 92.1751 129.354 92.0854 130 91.9071C130.646 91.7289 131.202 91.4278 131.669 91.0028C132.137 90.579 132.498 90.0253 132.753 89.3464C133.008 88.6676 133.136 87.8258 133.136 86.8223C133.136 85.7857 133.003 84.9027 132.74 84.1719C132.477 83.4411 132.11 82.8555 131.643 82.4128ZM129.697 89.0041C129.308 89.4361 128.707 89.651 127.896 89.651C127.085 89.651 126.481 89.4267 126.083 88.9781C125.685 88.5294 125.487 87.7467 125.487 86.6299C125.487 85.6996 125.693 84.9759 126.108 84.4599C126.522 83.944 127.118 83.6855 127.895 83.6855C129.484 83.6855 130.279 84.709 130.279 86.7562C130.279 87.8223 130.084 88.5708 129.695 89.0029L129.697 89.0041Z" fill="#0755A3"/>
<path d="M181.233 79.048H183.375C183.545 79.048 183.63 78.9618 183.63 78.7906V76.5782C183.63 76.407 183.545 76.3208 183.375 76.3208H181.233C181.063 76.3208 180.978 76.407 180.978 76.5782V78.7906C180.978 78.9618 181.063 79.048 181.233 79.048Z" fill="#0755A3"/>
<path d="M177.918 79.048H180.06C180.23 79.048 180.315 78.9618 180.315 78.7906V76.5782C180.315 76.407 180.23 76.3208 180.06 76.3208H177.918C177.748 76.3208 177.663 76.407 177.663 76.5782V78.7906C177.663 78.9618 177.748 79.048 177.918 79.048Z" fill="#0755A3"/>
<path d="M185.476 84.1718C185.211 83.441 184.846 82.8554 184.378 82.4127C183.909 81.9711 183.352 81.6477 182.704 81.4446C182.057 81.2403 181.358 81.1388 180.608 81.1388C179.909 81.1388 179.241 81.2403 178.603 81.4446C177.964 81.6488 177.401 81.9711 176.915 82.4127C176.43 82.8554 176.047 83.441 175.766 84.1718C175.485 84.9026 175.344 85.7868 175.344 86.8222C175.344 87.978 175.539 88.9213 175.93 89.6521H173.522C173.439 89.6367 173.35 89.6261 173.253 89.6261H172.82C172.174 89.6261 171.664 89.4903 171.291 89.22C170.917 88.9485 170.722 88.5589 170.704 88.0512C170.704 87.9497 170.708 87.8269 170.717 87.6829C170.726 87.5388 170.73 87.3818 170.73 87.213C170.73 86.298 170.615 85.4645 170.386 84.7101C170.155 83.9557 169.789 83.317 169.288 82.7916C168.785 82.2663 168.142 81.8602 167.36 81.5721C166.577 81.284 165.623 81.14 164.499 81.14C163.46 81.14 162.46 81.2805 161.498 81.5603C160.536 81.8401 159.646 82.1766 158.829 82.5673V75.0989C158.829 74.9289 158.744 74.8439 158.576 74.8439H156.227C156.058 74.8439 155.974 74.9289 155.974 75.0977V86.5483C155.974 87.1599 155.961 87.664 155.936 88.063C155.91 88.4621 155.855 88.7749 155.771 89.0051C155.686 89.2342 155.554 89.3947 155.375 89.4892C155.197 89.5824 154.955 89.6285 154.649 89.6285H141.14C141.134 89.6285 141.128 89.6285 141.122 89.6285C141.12 89.6285 141.117 89.6285 141.114 89.6285H140.221C139.796 89.6285 139.486 89.5317 139.291 89.3357C139.095 89.1409 138.998 88.7879 138.998 88.2791V75.0977C138.998 74.9277 138.914 74.8439 138.746 74.8439H136.396C136.227 74.8439 136.144 74.9289 136.144 75.0989V88.965C136.144 90.07 136.37 90.8811 136.825 91.3994C137.279 91.9176 138.038 92.1774 139.1 92.1774H141.114C141.114 92.1774 141.123 92.1774 141.128 92.1774C141.132 92.1774 141.135 92.1774 141.14 92.1774H155.362C155.855 92.1774 156.294 92.1561 156.681 92.1136C157.068 92.0711 157.405 91.9483 157.692 91.7441C157.911 92.0334 158.289 92.1774 158.829 92.1774H165.65C166.23 92.1774 166.758 92.1597 167.235 92.1254C167.712 92.0912 168.133 92.018 168.499 91.907C168.865 91.7949 169.18 91.6331 169.445 91.4183C169.708 91.2046 169.935 90.9165 170.122 90.5552C170.377 91.2069 170.781 91.6414 171.334 91.8551C171.885 92.0699 172.527 92.1774 173.258 92.1774C173.302 92.1774 173.338 92.1715 173.378 92.1691C173.423 92.1727 173.465 92.1774 173.513 92.1774H180.611C181.395 92.1774 182.11 92.0877 182.757 91.9094C183.404 91.7311 183.958 91.4301 184.418 91.005C184.879 90.5812 185.236 90.0275 185.491 89.3487C185.746 88.6698 185.875 87.8281 185.875 86.8246C185.875 85.788 185.743 84.9049 185.478 84.1741L185.476 84.1718ZM167.596 88.547C167.511 88.8941 167.344 89.148 167.098 89.3085C166.851 89.4691 166.501 89.5624 166.049 89.5872C165.597 89.612 165.014 89.6249 164.298 89.6249H158.726C158.76 89.4561 158.785 89.279 158.803 89.0925C158.819 88.9071 158.829 88.7123 158.829 88.5093V85.0572C159.544 84.7196 160.362 84.4055 161.283 84.1186C162.203 83.8306 163.14 83.6865 164.095 83.6865C164.811 83.6865 165.399 83.7633 165.859 83.9156C166.32 84.0679 166.69 84.2886 166.971 84.5755C167.252 84.8624 167.448 85.2178 167.559 85.6416C167.67 86.0643 167.726 86.5471 167.726 87.0878C167.726 87.7136 167.683 88.2011 167.598 88.5482L167.596 88.547ZM182.431 89.0276C182.04 89.4608 181.429 89.6769 180.597 89.6769C179.781 89.6769 179.177 89.4514 178.787 89.0016C178.396 88.5518 178.2 87.7655 178.2 86.6439C178.2 85.7101 178.404 84.9828 178.811 84.4646C179.22 83.9463 179.814 83.6877 180.595 83.6877C182.209 83.6877 183.017 84.716 183.017 86.7714C183.017 87.8422 182.821 88.5943 182.43 89.0276H182.431Z" fill="#0755A3"/>
<path d="M55.1435 114.022C55.2238 113.876 55.2934 113.729 55.3536 113.583C55.4138 113.436 55.4764 113.276 55.5437 113.102C55.6098 112.889 55.6665 112.676 55.7137 112.462C55.7598 112.25 55.7964 112.003 55.8235 111.723C55.8495 111.444 55.8695 111.114 55.8837 110.734C55.8967 110.354 55.9038 109.898 55.9038 109.365C55.9038 108.831 55.8967 108.375 55.8837 107.995C55.8707 107.615 55.8507 107.286 55.8235 107.006C55.7964 106.726 55.7598 106.479 55.7137 106.267C55.6665 106.053 55.6098 105.84 55.5437 105.627C55.1966 104.548 54.6039 103.732 53.7645 103.178C52.9251 102.626 51.9122 102.348 50.7269 102.348C49.5545 102.348 48.5487 102.626 47.7081 103.178C46.8687 103.732 46.276 104.548 45.9289 105.627C45.8616 105.84 45.805 106.053 45.7589 106.267C45.7117 106.48 45.6751 106.726 45.6491 107.006C45.622 107.286 45.6019 107.615 45.5889 107.995C45.5759 108.375 45.5688 108.831 45.5688 109.365C45.5688 109.898 45.5759 110.354 45.5889 110.734C45.6019 111.114 45.622 111.444 45.6491 111.723C45.6751 112.003 45.7117 112.25 45.7589 112.462C45.805 112.676 45.8616 112.889 45.9289 113.102C46.2748 114.181 46.8687 114.998 47.7081 115.551C48.5475 116.103 49.5534 116.381 50.7269 116.381C51.8591 116.381 52.8189 116.134 53.6052 115.642L55.0844 117.041C55.1376 117.094 55.1907 117.118 55.2438 117.11C55.297 117.103 55.3442 117.081 55.3843 117.041L56.6239 115.722C56.7042 115.616 56.7042 115.523 56.6239 115.442L55.1447 114.023L55.1435 114.022ZM53.5343 110.474C53.5272 110.787 53.5143 111.061 53.4942 111.294C53.4741 111.526 53.454 111.723 53.434 111.883C53.4139 112.042 53.3844 112.183 53.3443 112.303L52.1247 111.124C52.0314 111.043 51.9382 111.05 51.8449 111.144L50.5852 112.462C50.4919 112.583 50.4919 112.676 50.5852 112.742L51.9441 114.061C51.7705 114.141 51.5804 114.198 51.3738 114.231C51.1672 114.265 50.95 114.281 50.7245 114.281C50.0445 114.281 49.4955 114.12 49.0752 113.8C48.6549 113.48 48.3527 113.041 48.1662 112.481C48.126 112.361 48.0894 112.222 48.0564 112.061C48.0233 111.902 47.9962 111.701 47.9761 111.461C47.956 111.222 47.943 110.931 47.9359 110.591C47.9289 110.251 47.9265 109.842 47.9265 109.362C47.9265 108.883 47.93 108.473 47.9359 108.133C47.943 107.793 47.956 107.504 47.9761 107.263C47.9962 107.022 48.0221 106.823 48.0564 106.663C48.0894 106.503 48.126 106.363 48.1662 106.243C48.3527 105.683 48.6561 105.244 49.0752 104.924C49.4943 104.604 50.0445 104.444 50.7245 104.444C51.4045 104.444 51.9571 104.604 52.3832 104.924C52.8094 105.244 53.1164 105.683 53.3029 106.243C53.3431 106.363 53.3761 106.503 53.4033 106.663C53.4293 106.823 53.4529 107.023 53.4729 107.263C53.493 107.503 53.5095 107.793 53.5225 108.133C53.5355 108.473 53.5426 108.883 53.5426 109.362C53.5426 109.788 53.5391 110.159 53.5331 110.472L53.5343 110.474Z" fill="#0755A3"/>
<path d="M67.2164 102.549H58.702C58.5686 102.549 58.5024 102.615 58.5024 102.748V115.96C58.5024 116.094 58.5686 116.161 58.702 116.161H67.2164C67.3498 116.161 67.4159 116.094 67.4159 115.959V114.224C67.4159 114.089 67.3486 114.022 67.2164 114.022H60.9805C60.9002 114.022 60.8601 113.983 60.8601 113.903V110.484C60.8601 110.405 60.9002 110.364 60.9805 110.364H66.2377C66.3711 110.364 66.4372 110.297 66.4372 110.163V108.427C66.4372 108.293 66.3711 108.225 66.2377 108.225H60.9805C60.9002 108.225 60.8601 108.185 60.8601 108.106V104.806C60.8601 104.727 60.9002 104.687 60.9805 104.687H67.2164C67.3498 104.687 67.4159 104.62 67.4159 104.485V102.75C67.4159 102.615 67.3486 102.549 67.2164 102.549Z" fill="#0755A3"/>
<path d="M78.9494 104.486V102.751C78.9494 102.616 78.8821 102.549 78.7499 102.549H69.0359C68.9025 102.549 68.8364 102.616 68.8364 102.751V104.486C68.8364 104.621 68.9025 104.688 69.0359 104.688H72.5943C72.6745 104.688 72.7147 104.728 72.7147 104.809V115.962C72.7147 116.095 72.7808 116.161 72.9142 116.161H74.8728C75.0062 116.161 75.0723 116.095 75.0723 115.962V104.809C75.0723 104.728 75.1125 104.688 75.1916 104.688H78.7499C78.8833 104.688 78.9494 104.621 78.9494 104.486Z" fill="#0755A3"/>
<path d="M85.5648 102.768C85.5247 102.635 85.4385 102.569 85.3051 102.569H83.4657C83.3323 102.569 83.2461 102.636 83.206 102.768L78.5485 115.96C78.5084 116.094 78.5556 116.16 78.6878 116.16H80.6264C80.7598 116.16 80.846 116.094 80.8861 115.96L81.7857 113.322H86.9024L87.802 115.96C87.8422 116.094 87.9284 116.16 88.0618 116.16H90.0204C90.1538 116.16 90.1998 116.094 90.1597 115.96L85.5624 102.768H85.5648ZM82.5071 111.224L84.3264 105.947H84.3866L86.1858 111.224H82.5071Z" fill="#0755A3"/>
<path d="M100.737 102.549H92.223C92.0896 102.549 92.0234 102.615 92.0234 102.748V115.96C92.0234 116.094 92.0896 116.161 92.223 116.161H94.1816C94.315 116.161 94.3811 116.095 94.3811 115.962V110.624C94.3811 110.544 94.4212 110.504 94.5015 110.504H99.7587C99.8921 110.504 99.9582 110.436 99.9582 110.302V108.566C99.9582 108.432 99.8909 108.365 99.7587 108.365H94.5015C94.4212 108.365 94.3811 108.324 94.3811 108.245V104.806C94.3811 104.727 94.4212 104.687 94.5015 104.687H100.737C100.871 104.687 100.937 104.62 100.937 104.485V102.75C100.937 102.615 100.87 102.549 100.737 102.549Z" fill="#0755A3"/>
<path d="M119.865 102.569H118.105C117.932 102.569 117.819 102.636 117.765 102.768L114.088 111.144H114.008L110.27 102.768C110.217 102.635 110.103 102.569 109.93 102.569H108.151C108.017 102.569 107.951 102.636 107.951 102.768V115.96C107.951 116.094 108.017 116.16 108.151 116.16H109.89C110.023 116.16 110.089 116.094 110.089 115.96V107.646H110.17L113.048 114.042C113.128 114.216 113.254 114.302 113.428 114.302H114.587C114.761 114.302 114.887 114.216 114.967 114.042L117.846 107.646H117.926V115.96C117.926 116.094 117.992 116.16 118.126 116.16H119.865C119.998 116.16 120.064 116.094 120.064 115.96V102.768C120.064 102.635 119.997 102.569 119.865 102.569Z" fill="#0755A3"/>
<path d="M131.778 102.549H123.264C123.131 102.549 123.064 102.615 123.064 102.748V115.96C123.064 116.094 123.131 116.161 123.264 116.161H131.778C131.912 116.161 131.978 116.094 131.978 115.959V114.224C131.978 114.089 131.911 114.022 131.778 114.022H125.543C125.462 114.022 125.422 113.983 125.422 113.903V110.484C125.422 110.405 125.462 110.364 125.543 110.364H130.8C130.933 110.364 130.999 110.297 130.999 110.163V108.427C130.999 108.293 130.932 108.225 130.8 108.225H125.543C125.462 108.225 125.422 108.185 125.422 108.106V104.806C125.422 104.727 125.462 104.687 125.543 104.687H131.778C131.912 104.687 131.978 104.62 131.978 104.485V102.75C131.978 102.615 131.911 102.549 131.778 102.549Z" fill="#0755A3"/>
<path d="M144.32 106.832C144.287 106.552 144.251 106.315 144.211 106.121C144.17 105.928 144.123 105.745 144.071 105.571C143.417 103.556 141.901 102.549 139.525 102.549H134.657C134.524 102.549 134.457 102.615 134.457 102.748V115.961C134.457 116.094 134.523 116.161 134.657 116.161H139.525C141.901 116.161 143.417 115.154 144.071 113.139C144.124 112.965 144.172 112.782 144.211 112.589C144.251 112.395 144.287 112.158 144.32 111.878C144.353 111.598 144.377 111.255 144.39 110.847C144.403 110.44 144.41 109.943 144.41 109.356C144.41 108.77 144.403 108.272 144.39 107.865C144.377 107.458 144.353 107.114 144.32 106.835V106.832ZM141.992 110.591C141.979 110.924 141.963 111.199 141.943 111.419C141.923 111.638 141.899 111.818 141.873 111.957C141.846 112.096 141.813 112.213 141.773 112.305C141.573 112.917 141.243 113.356 140.783 113.622C140.323 113.887 139.714 114.021 138.955 114.021H136.936C136.856 114.021 136.815 113.982 136.815 113.902V104.806C136.815 104.727 136.856 104.687 136.936 104.687H138.955C139.714 104.687 140.324 104.82 140.783 105.086C141.243 105.352 141.573 105.791 141.773 106.402C141.813 106.496 141.846 106.609 141.873 106.741C141.899 106.875 141.923 107.054 141.943 107.28C141.963 107.506 141.979 107.785 141.992 108.118C142.005 108.451 142.012 108.863 142.012 109.354C142.012 109.845 142.005 110.258 141.992 110.591Z" fill="#0755A3"/>
<path d="M149.109 102.569H147.149C147.039 102.569 146.95 102.658 146.95 102.768V115.962C146.95 116.072 147.039 116.161 147.149 116.161H149.109C149.219 116.161 149.309 116.072 149.309 115.962V102.768C149.309 102.658 149.219 102.569 149.109 102.569Z" fill="#0755A3"/>
<path d="M154.356 107.27C154.376 107.038 154.402 106.847 154.436 106.702C154.469 106.556 154.506 106.409 154.546 106.263C154.732 105.705 155.022 105.265 155.415 104.947C155.808 104.628 156.331 104.467 156.984 104.467C157.664 104.467 158.2 104.641 158.593 104.987C158.986 105.334 159.295 105.746 159.522 106.226C159.575 106.36 159.661 106.393 159.782 106.327L161.481 105.508C161.587 105.467 161.62 105.387 161.581 105.268C161.195 104.359 160.605 103.641 159.812 103.117C159.019 102.593 158.077 102.329 156.984 102.329C155.824 102.329 154.835 102.607 154.016 103.16C153.196 103.714 152.613 104.552 152.267 105.673C152.2 105.886 152.143 106.097 152.097 106.303C152.05 106.51 152.013 106.751 151.988 107.023C151.96 107.297 151.94 107.621 151.927 107.994C151.914 108.367 151.907 108.821 151.907 109.355C151.907 109.903 151.914 110.36 151.927 110.727C151.94 111.094 151.96 111.414 151.988 111.688C152.015 111.962 152.051 112.201 152.097 112.408C152.143 112.615 152.2 112.825 152.267 113.039C152.613 114.159 153.196 114.997 154.016 115.551C154.835 116.105 155.824 116.382 156.984 116.382C158.076 116.382 159.019 116.12 159.812 115.595C160.605 115.07 161.195 114.353 161.581 113.443C161.621 113.323 161.588 113.244 161.481 113.204L159.782 112.384C159.661 112.318 159.575 112.351 159.522 112.485C159.295 112.964 158.985 113.377 158.593 113.724C158.2 114.072 157.664 114.244 156.984 114.244C156.331 114.244 155.808 114.085 155.415 113.765C155.022 113.446 154.731 113.007 154.546 112.448C154.506 112.315 154.469 112.172 154.436 112.02C154.403 111.866 154.376 111.674 154.356 111.441C154.336 111.209 154.323 110.929 154.316 110.603C154.309 110.277 154.306 109.862 154.306 109.356C154.306 108.864 154.31 108.452 154.316 108.119C154.322 107.786 154.336 107.503 154.356 107.27Z" fill="#0755A3"/>
<path d="M169.676 102.768C169.636 102.635 169.549 102.569 169.416 102.569H167.577C167.443 102.569 167.357 102.636 167.317 102.768L162.659 115.96C162.619 116.094 162.666 116.16 162.799 116.16H164.737C164.871 116.16 164.957 116.094 164.997 115.96L165.897 113.322H171.013L171.913 115.96C171.953 116.094 172.039 116.16 172.173 116.16H174.131C174.265 116.16 174.311 116.094 174.271 115.96L169.673 102.768H169.676ZM166.618 111.224L168.437 105.947H168.497L170.297 111.224H166.619H166.618Z" fill="#0755A3"/>
<path d="M184.846 114.022H178.61C178.53 114.022 178.49 113.983 178.49 113.903V102.768C178.49 102.635 178.423 102.569 178.29 102.569H176.332C176.198 102.569 176.132 102.636 176.132 102.768V115.96C176.132 116.094 176.198 116.16 176.332 116.16H184.846C184.98 116.16 185.046 116.093 185.046 115.958V114.223C185.046 114.088 184.979 114.022 184.846 114.022Z" fill="#0755A3"/>
</svg>
